<svg xmlns="http://www.w3.org/2000/svg" width="368.634" height="77.363" viewBox="0 0 368.634 77.363">
    <g id="LOGO" transform="translate(-20.19 -10.595)">
        <g id="Gruppe_3" data-name="Gruppe 3" transform="translate(20.19 10.595)">
            <path id="Pfad_1" data-name="Pfad 1"
                  d="M138.971,44.778V30.661H125.546V13.713l-16.44,10.275V62.706c0,7.483,1.891,12.805,5.621,15.82,3.657,2.957,8.549,4.458,14.544,4.458h9.956V68.645h-7.191c-2.47,0-4.258-.42-5.169-1.213-.877-.763-1.322-2.316-1.322-4.615V44.778Z"
                  transform="translate(116.345 -5.807)" fill="#e2007a" />
            <path id="Pfad_2" data-name="Pfad 2"
                  d="M160.787,41.938c-.22-5.041-4.713-8.442-10.525-8.442-4.823,0-9.538,2.3-11.183,8.442Zm15.894,9.538H139.19c1.535,4.934,5.81,8,11.95,8a19.424,19.424,0,0,0,12.935-5.26L172.4,64.741c-5.041,5.48-13.812,8.878-22.36,8.878-16.224,0-27.627-11.181-27.627-26.747,0-16.664,12.826-27.078,27.517-27.078S176.9,30.1,176.9,45.666c0,1.425-.111,3.288-.22,5.81"
                  transform="translate(136.783 3.531)" fill="#e2007a" />
            <path id="Pfad_3" data-name="Pfad 3"
                  d="M145.6,46.542c0-16.224,13.372-26.747,28.283-26.747,9.865,0,17.43,4.823,22.361,12.059L183.64,39.746c-1.972-3.069-6.136-4.934-9.645-4.934-7.455,0-11.839,5.373-11.839,11.729,0,6.469,4.384,12.059,11.839,12.059,3.509,0,7.673-1.862,9.645-4.934l12.607,7.892c-4.931,7.236-12.5,12.059-22.361,12.059-14.911,0-28.283-10.853-28.283-27.077"
                  transform="translate(172.387 3.531)" fill="#e2007a" />
            <g id="Gruppe_2" data-name="Gruppe 2">
                <g id="Gruppe_1" data-name="Gruppe 1" transform="translate(0 23.538)">
                    <path id="Pfad_4" data-name="Pfad 4"
                          d="M20.19,55.833H35.538c0,2.522,1.864,5.484,6.468,5.484,3.4,0,6.248-1.756,6.248-4.168,0-1.642-1.206-2.411-5.042-3.288l-6.689-1.751C21.506,48.051,21.068,39.5,21.068,35.225c0-7.563,8.551-15.348,20.938-15.348,9.646,0,21.375,4.494,21.157,17.319H47.816c0-3.287-2.3-4.93-5.482-4.93-2.74,0-5.042,1.313-5.042,3.507,0,1.973,1.754,3.068,4.386,3.725l8.878,2.412c12.826,3.507,13.922,11.62,13.922,15.127C64.478,68.333,52.75,73.7,42.444,73.7c-11.4,0-22.254-6.25-22.254-17.87"
                          transform="translate(-20.19 -19.878)" />
                </g>
                <rect id="Rechteck_1" data-name="Rechteck 1" width="16.225" height="51.193"
                      transform="translate(49.624 24.881)" />
                <path id="Pfad_5" data-name="Pfad 5"
                      d="M131.549,44.873V72.387H115.325V45.31c0-7.892-3.946-10.414-8.111-10.414-5.043,0-8.771,3.507-8.771,12.5V72.387H82.219V45.639c0-7.892-3.947-10.744-8-10.744-4.384,0-8.878,2.192-8.878,10.744V72.387H49.112V21.194H65.338V31.17c.986-7.785,8.66-11.292,13.812-11.292,7.564,0,13.153,3.618,16.224,9.758,3.507-6.8,11.4-9.758,16.774-9.758,12.825,0,19.4,9.317,19.4,24.995"
                      transform="translate(24.22 3.66)" />
                <path id="Pfad_6" data-name="Pfad 6"
                      d="M57.753,19.813a9.218,9.218,0,1,1-9.218-9.218,9.218,9.218,0,0,1,9.218,9.218"
                      transform="translate(9.18 -10.595)" />
                <path id="Pfad_7" data-name="Pfad 7"
                      d="M123.837,46.844A11.814,11.814,0,0,0,112,34.9a11.588,11.588,0,0,0-11.729,11.949,11.717,11.717,0,0,0,11.839,11.84,11.907,11.907,0,0,0,11.729-11.84m.55-25.651h16.224V72.387H124.387V65.921c-3.507,4.823-9.758,7.783-16.226,7.783C93.8,73.7,83.717,62.849,83.717,46.844c0-16.113,10.085-26.966,24.664-26.966,6.249,0,12.5,2.742,16.007,7.455Z"
                      transform="translate(77.358 3.66)" />
            </g>
        </g>
    </g>
</svg>
